<svg width="20" height="25" viewBox="0 0 20 25" fill="none" xmlns="http://www.w3.org/2000/svg">
<path d="M4.70898 4.2959H11.5732C11.8018 4.2959 11.9834 4.36621 12.1182 4.50684C12.2529 4.6416 12.3203 4.8291 12.3203 5.06934V6.96777C12.3203 7.20215 12.2529 7.38965 12.1182 7.53027C11.9834 7.6709 11.8018 7.74121 11.5732 7.74121H4.70898C4.47461 7.74121 4.29297 7.6709 4.16406 7.53027C4.03516 7.38965 3.9707 7.20215 3.9707 6.96777V5.06934C3.9707 4.8291 4.03516 4.6416 4.16406 4.50684C4.29297 4.36621 4.47461 4.2959 4.70898 4.2959ZM4.70898 8.70801H15.291C15.5195 8.70801 15.6982 8.77832 15.8271 8.91895C15.9619 9.05957 16.0293 9.24707 16.0293 9.48145V11.3711C16.0293 11.6055 15.9619 11.7959 15.8271 11.9424C15.6982 12.083 15.5195 12.1533 15.291 12.1533H4.70898C4.47461 12.1533 4.29297 12.083 4.16406 11.9424C4.03516 11.7959 3.9707 11.6084 3.9707 11.3799V9.48145C3.9707 9.24707 4.03516 9.05957 4.16406 8.91895C4.29297 8.77832 4.47461 8.70801 4.70898 8.70801ZM4.70898 13.1201H13.3926C13.627 13.1201 13.8086 13.1904 13.9375 13.3311C14.0664 13.4658 14.1309 13.6504 14.1309 13.8848V15.792C14.1309 16.0322 14.0664 16.2227 13.9375 16.3633C13.8086 16.498 13.627 16.5654 13.3926 16.5654H4.70898C4.47461 16.5654 4.29297 16.498 4.16406 16.3633C4.03516 16.2227 3.9707 16.0322 3.9707 15.792V13.8848C3.9707 13.6504 4.03516 13.4658 4.16406 13.3311C4.29297 13.1904 4.47461 13.1201 4.70898 13.1201ZM4.70898 17.5322H9.80664C10.0352 17.5322 10.2168 17.6025 10.3516 17.7432C10.4863 17.8838 10.5537 18.0742 10.5537 18.3145V20.2041C10.5537 20.4385 10.4863 20.626 10.3516 20.7666C10.2168 20.9131 10.0352 20.9863 9.80664 20.9863H4.70898C4.47461 20.9863 4.29297 20.9131 4.16406 20.7666C4.03516 20.626 3.9707 20.4385 3.9707 20.2041V18.3145C3.9707 18.0742 4.03516 17.8838 4.16406 17.7432C4.29297 17.6025 4.47461 17.5322 4.70898 17.5322ZM0.384766 21.2939V4.03223C0.384766 2.85449 0.683594 1.96387 1.28125 1.36035C1.87891 0.750977 2.76367 0.446289 3.93555 0.446289H16.0557C17.2217 0.446289 18.1035 0.750977 18.7012 1.36035C19.3047 1.96387 19.6064 2.85449 19.6064 4.03223V21.2939C19.6064 22.4775 19.3047 23.3711 18.7012 23.9746C18.1035 24.5781 17.2217 24.8799 16.0557 24.8799H3.93555C2.76367 24.8799 1.87891 24.5781 1.28125 23.9746C0.683594 23.3711 0.384766 22.4775 0.384766 21.2939ZM2.32715 21.1797C2.32715 21.7539 2.47363 22.1904 2.7666 22.4893C3.06543 22.7881 3.51074 22.9375 4.10254 22.9375H15.8887C16.4805 22.9375 16.9229 22.7881 17.2158 22.4893C17.5146 22.1904 17.6641 21.7539 17.6641 21.1797V4.14648C17.6641 3.57227 17.5146 3.13574 17.2158 2.83691C16.9229 2.53809 16.4805 2.38867 15.8887 2.38867H4.10254C3.51074 2.38867 3.06543 2.53809 2.7666 2.83691C2.47363 3.13574 2.32715 3.57227 2.32715 4.14648V21.1797Z" fill="#007AFF"/>
</svg>
