<svg width="24" height="22" viewBox="0 0 24 22" fill="none" xmlns="http://www.w3.org/2000/svg">
<path d="M3.8092 21.1396C2.63147 21.1396 1.73792 20.8408 1.12854 20.2432C0.525024 19.6455 0.223267 18.7607 0.223267 17.5889V3.74609C0.223267 2.58008 0.525024 1.69824 1.12854 1.10059C1.73792 0.50293 2.63147 0.204102 3.8092 0.204102H19.524C20.7018 0.204102 21.5924 0.505859 22.1959 1.10938C22.8053 1.70703 23.11 2.58594 23.11 3.74609V17.5889C23.11 18.7549 22.8053 19.6367 22.1959 20.2344C21.5924 20.8379 20.7018 21.1396 19.524 21.1396H3.8092ZM3.78284 19.2061H19.5328C20.0543 19.2061 20.4557 19.0684 20.7369 18.793C21.024 18.5234 21.1676 18.1133 21.1676 17.5625V7.20898C21.1676 6.66406 21.024 6.25684 20.7369 5.9873C20.4557 5.71191 20.0543 5.57422 19.5328 5.57422H3.78284C3.25549 5.57422 2.85413 5.71191 2.57874 5.9873C2.30334 6.25684 2.16565 6.66406 2.16565 7.20898V17.5625C2.16565 18.1133 2.30334 18.5234 2.57874 18.793C2.85413 19.0684 3.25549 19.2061 3.78284 19.2061ZM9.46057 9.51172C9.26721 9.51172 9.13245 9.47656 9.05627 9.40625C8.98596 9.33594 8.95081 9.20703 8.95081 9.01953V8.35156C8.95081 8.16406 8.98596 8.03809 9.05627 7.97363C9.13245 7.90332 9.26721 7.86816 9.46057 7.86816H10.1285C10.3219 7.86816 10.4537 7.90332 10.524 7.97363C10.5944 8.03809 10.6295 8.16406 10.6295 8.35156V9.01953C10.6295 9.20703 10.5944 9.33594 10.524 9.40625C10.4537 9.47656 10.3219 9.51172 10.1285 9.51172H9.46057ZM13.2135 9.51172C13.026 9.51172 12.8942 9.47656 12.818 9.40625C12.7477 9.33594 12.7125 9.20703 12.7125 9.01953V8.35156C12.7125 8.16406 12.7477 8.03809 12.818 7.97363C12.8942 7.90332 13.026 7.86816 13.2135 7.86816H13.8815C14.0748 7.86816 14.2067 7.90332 14.277 7.97363C14.3473 8.03809 14.3824 8.16406 14.3824 8.35156V9.01953C14.3824 9.20703 14.3473 9.33594 14.277 9.40625C14.2067 9.47656 14.0748 9.51172 13.8815 9.51172H13.2135ZM16.9752 9.51172C16.7819 9.51172 16.65 9.47656 16.5797 9.40625C16.5094 9.33594 16.4742 9.20703 16.4742 9.01953V8.35156C16.4742 8.16406 16.5094 8.03809 16.5797 7.97363C16.65 7.90332 16.7819 7.86816 16.9752 7.86816H17.6432C17.8307 7.86816 17.9596 7.90332 18.0299 7.97363C18.1061 8.03809 18.1442 8.16406 18.1442 8.35156V9.01953C18.1442 9.20703 18.1061 9.33594 18.0299 9.40625C17.9596 9.47656 17.8307 9.51172 17.6432 9.51172H16.9752ZM5.69885 13.2119C5.50549 13.2119 5.37366 13.1768 5.30334 13.1064C5.23303 13.0361 5.19788 12.9072 5.19788 12.7197V12.0518C5.19788 11.8584 5.23303 11.7295 5.30334 11.665C5.37366 11.6006 5.50549 11.5684 5.69885 11.5684H6.36682C6.55432 11.5684 6.68323 11.6006 6.75354 11.665C6.82971 11.7295 6.8678 11.8584 6.8678 12.0518V12.7197C6.8678 12.9072 6.82971 13.0361 6.75354 13.1064C6.68323 13.1768 6.55432 13.2119 6.36682 13.2119H5.69885ZM9.46057 13.2119C9.26721 13.2119 9.13245 13.1768 9.05627 13.1064C8.98596 13.0361 8.95081 12.9072 8.95081 12.7197V12.0518C8.95081 11.8584 8.98596 11.7295 9.05627 11.665C9.13245 11.6006 9.26721 11.5684 9.46057 11.5684H10.1285C10.3219 11.5684 10.4537 11.6006 10.524 11.665C10.5944 11.7295 10.6295 11.8584 10.6295 12.0518V12.7197C10.6295 12.9072 10.5944 13.0361 10.524 13.1064C10.4537 13.1768 10.3219 13.2119 10.1285 13.2119H9.46057ZM13.2135 13.2119C13.026 13.2119 12.8942 13.1768 12.818 13.1064C12.7477 13.0361 12.7125 12.9072 12.7125 12.7197V12.0518C12.7125 11.8584 12.7477 11.7295 12.818 11.665C12.8942 11.6006 13.026 11.5684 13.2135 11.5684H13.8815C14.0748 11.5684 14.2067 11.6006 14.277 11.665C14.3473 11.7295 14.3824 11.8584 14.3824 12.0518V12.7197C14.3824 12.9072 14.3473 13.0361 14.277 13.1064C14.2067 13.1768 14.0748 13.2119 13.8815 13.2119H13.2135ZM16.9752 13.2119C16.7819 13.2119 16.65 13.1768 16.5797 13.1064C16.5094 13.0361 16.4742 12.9072 16.4742 12.7197V12.0518C16.4742 11.8584 16.5094 11.7295 16.5797 11.665C16.65 11.6006 16.7819 11.5684 16.9752 11.5684H17.6432C17.8307 11.5684 17.9596 11.6006 18.0299 11.665C18.1061 11.7295 18.1442 11.8584 18.1442 12.0518V12.7197C18.1442 12.9072 18.1061 13.0361 18.0299 13.1064C17.9596 13.1768 17.8307 13.2119 17.6432 13.2119H16.9752ZM5.69885 16.9033C5.50549 16.9033 5.37366 16.8711 5.30334 16.8066C5.23303 16.7422 5.19788 16.6133 5.19788 16.4199V15.7607C5.19788 15.5674 5.23303 15.4385 5.30334 15.374C5.37366 15.3037 5.50549 15.2686 5.69885 15.2686H6.36682C6.55432 15.2686 6.68323 15.3037 6.75354 15.374C6.82971 15.4385 6.8678 15.5674 6.8678 15.7607V16.4199C6.8678 16.6133 6.82971 16.7422 6.75354 16.8066C6.68323 16.8711 6.55432 16.9033 6.36682 16.9033H5.69885ZM9.46057 16.9033C9.26721 16.9033 9.13245 16.8711 9.05627 16.8066C8.98596 16.7422 8.95081 16.6133 8.95081 16.4199V15.7607C8.95081 15.5674 8.98596 15.4385 9.05627 15.374C9.13245 15.3037 9.26721 15.2686 9.46057 15.2686H10.1285C10.3219 15.2686 10.4537 15.3037 10.524 15.374C10.5944 15.4385 10.6295 15.5674 10.6295 15.7607V16.4199C10.6295 16.6133 10.5944 16.7422 10.524 16.8066C10.4537 16.8711 10.3219 16.9033 10.1285 16.9033H9.46057ZM13.2135 16.9033C13.026 16.9033 12.8942 16.8711 12.818 16.8066C12.7477 16.7422 12.7125 16.6133 12.7125 16.4199V15.7607C12.7125 15.5674 12.7477 15.4385 12.818 15.374C12.8942 15.3037 13.026 15.2686 13.2135 15.2686H13.8815C14.0748 15.2686 14.2067 15.3037 14.277 15.374C14.3473 15.4385 14.3824 15.5674 14.3824 15.7607V16.4199C14.3824 16.6133 14.3473 16.7422 14.277 16.8066C14.2067 16.8711 14.0748 16.9033 13.8815 16.9033H13.2135Z" fill="#007AFF"/>
</svg>
