<svg width="20" height="28" viewBox="0 0 20 28" fill="none" xmlns="http://www.w3.org/2000/svg">
<path d="M5.16632 12.5537C4.90851 12.5537 4.68292 12.46 4.48956 12.2725C4.30206 12.085 4.20831 11.8623 4.20831 11.6045C4.20831 11.3408 4.30206 11.1152 4.48956 10.9277C4.68292 10.7402 4.90851 10.6465 5.16632 10.6465C5.42999 10.6465 5.65558 10.7402 5.84308 10.9277C6.03058 11.1094 6.12433 11.335 6.12433 11.6045C6.12433 11.8623 6.03058 12.085 5.84308 12.2725C5.65558 12.46 5.42999 12.5537 5.16632 12.5537ZM5.16632 16.5967C4.90265 16.5967 4.67706 16.5059 4.48956 16.3242C4.30206 16.1367 4.20831 15.9111 4.20831 15.6475C4.20831 15.3838 4.30206 15.1611 4.48956 14.9795C4.67706 14.7979 4.90265 14.707 5.16632 14.707C5.42999 14.707 5.65558 14.7979 5.84308 14.9795C6.03058 15.1553 6.12433 15.3779 6.12433 15.6475C6.12433 15.9111 6.03058 16.1367 5.84308 16.3242C5.65558 16.5059 5.42999 16.5967 5.16632 16.5967ZM5.16632 20.877C4.90851 20.877 4.68292 20.7832 4.48956 20.5957C4.30206 20.4023 4.20831 20.1768 4.20831 19.9189C4.20831 19.6611 4.30206 19.4385 4.48956 19.251C4.68292 19.0576 4.90851 18.9609 5.16632 18.9609C5.42999 18.9609 5.65558 19.0547 5.84308 19.2422C6.03058 19.4297 6.12433 19.6553 6.12433 19.9189C6.12433 20.1826 6.03058 20.4082 5.84308 20.5957C5.65558 20.7832 5.42999 20.877 5.16632 20.877ZM8.14581 12.3164C7.94659 12.3164 7.77667 12.2461 7.63605 12.1055C7.49542 11.9648 7.42511 11.7979 7.42511 11.6045C7.42511 11.4053 7.49542 11.2383 7.63605 11.1035C7.77667 10.9629 7.94659 10.8926 8.14581 10.8926H14.7464C14.9398 10.8926 15.1068 10.9629 15.2474 11.1035C15.388 11.2383 15.4583 11.4053 15.4583 11.6045C15.4583 11.7979 15.388 11.9648 15.2474 12.1055C15.1068 12.2461 14.9398 12.3164 14.7464 12.3164H8.14581ZM8.14581 16.3594C7.94073 16.3594 7.76788 16.292 7.62726 16.1572C7.49249 16.0166 7.42511 15.8467 7.42511 15.6475C7.42511 15.4482 7.49249 15.2812 7.62726 15.1465C7.76788 15.0117 7.94073 14.9443 8.14581 14.9443H14.7464C14.9398 14.9443 15.1068 15.0117 15.2474 15.1465C15.388 15.2812 15.4583 15.4482 15.4583 15.6475C15.4583 15.8467 15.388 16.0166 15.2474 16.1572C15.1068 16.292 14.9398 16.3594 14.7464 16.3594H8.14581ZM8.14581 20.6309C7.94659 20.6309 7.77667 20.5605 7.63605 20.4199C7.49542 20.2793 7.42511 20.1123 7.42511 19.9189C7.42511 19.7256 7.49249 19.5615 7.62726 19.4268C7.76788 19.2861 7.94073 19.2158 8.14581 19.2158H14.7464C14.9398 19.2158 15.1068 19.2861 15.2474 19.4268C15.388 19.5615 15.4583 19.7256 15.4583 19.9189C15.4583 20.1123 15.388 20.2793 15.2474 20.4199C15.1068 20.5605 14.9398 20.6309 14.7464 20.6309H8.14581ZM3.78644 27.7676C2.62628 27.7676 1.74445 27.46 1.14093 26.8447C0.537415 26.2354 0.235657 25.3447 0.235657 24.1729V6.86719C0.235657 5.70703 0.528625 4.81641 1.11456 4.19531C1.70636 3.57422 2.56769 3.26367 3.69855 3.26367H4.11163C4.09406 3.32812 4.07941 3.39551 4.06769 3.46582C4.06183 3.53027 4.0589 3.59766 4.0589 3.66797V4.59961C4.0589 4.82227 4.08527 5.0127 4.138 5.1709H3.75128C3.21808 5.1709 2.81378 5.32324 2.53839 5.62793C2.26886 5.93262 2.13409 6.35449 2.13409 6.89355V24.1465C2.13409 24.6973 2.28058 25.1191 2.57355 25.4121C2.87238 25.7109 3.3089 25.8604 3.88312 25.8604H15.7747C16.3489 25.8604 16.7825 25.7109 17.0755 25.4121C17.3743 25.1191 17.5237 24.6973 17.5237 24.1465V6.89355C17.5237 6.35449 17.386 5.93262 17.1107 5.62793C16.8411 5.32324 16.4398 5.1709 15.9066 5.1709H15.5286C15.5755 5.0127 15.5989 4.82227 15.5989 4.59961V3.66797C15.5989 3.59766 15.5931 3.53027 15.5814 3.46582C15.5755 3.39551 15.5638 3.32812 15.5462 3.26367H15.9593C17.0901 3.26367 17.9485 3.57422 18.5345 4.19531C19.1263 4.81641 19.4222 5.70703 19.4222 6.86719V24.1729C19.4222 25.3447 19.1204 26.2354 18.5169 26.8447C17.9134 27.46 17.0316 27.7676 15.8714 27.7676H3.78644ZM6.35284 5.91797C6.03058 5.91797 5.7757 5.82422 5.5882 5.63672C5.40656 5.44922 5.31573 5.18555 5.31573 4.8457V3.65918C5.31573 3.3252 5.40656 3.06445 5.5882 2.87695C5.7757 2.68359 6.03058 2.58691 6.35284 2.58691H7.39874C7.42804 2.16504 7.55402 1.78125 7.77667 1.43555C7.99933 1.08398 8.28937 0.805664 8.64679 0.600586C9.00421 0.389648 9.39972 0.28418 9.83331 0.28418C10.2669 0.28418 10.6624 0.389648 11.0198 0.600586C11.3773 0.805664 11.6644 1.08398 11.8812 1.43555C12.1038 1.78125 12.2298 2.16504 12.2591 2.58691H13.305C13.6273 2.58691 13.8792 2.68359 14.0609 2.87695C14.2484 3.06445 14.3421 3.3252 14.3421 3.65918V4.8457C14.3421 5.18555 14.2484 5.44922 14.0609 5.63672C13.8792 5.82422 13.6273 5.91797 13.305 5.91797H6.35284ZM9.83331 3.67676C10.1087 3.67676 10.346 3.57715 10.5452 3.37793C10.7444 3.17285 10.8441 2.93555 10.8441 2.66602C10.8441 2.38477 10.7444 2.14746 10.5452 1.9541C10.346 1.75488 10.1087 1.65527 9.83331 1.65527C9.55206 1.65527 9.31183 1.75488 9.11261 1.9541C8.91339 2.14746 8.81378 2.38477 8.81378 2.66602C8.81378 2.93555 8.91339 3.17285 9.11261 3.37793C9.31183 3.57715 9.55206 3.67676 9.83331 3.67676Z" fill="#007AFF"/>
</svg>
